<svg xmlns="http://www.w3.org/2000/svg" width="32" height="32" viewBox="0 0 24 24"><!-- Icon from Ultimate free icons by Streamline - https://creativecommons.org/licenses/by/4.0/ --><path fill="#1d44a9" d="M14 4.5a4.5 4.5 0 0 0-9 0v9.44a.23.23 0 0 1-.06.16a6 6 0 1 0 9.12 0a.23.23 0 0 1-.06-.16ZM9.5 22a4 4 0 0 1-2.8-6.86a1 1 0 0 0 .3-.71V4.5a2.5 2.5 0 0 1 5 0v9.93a1 1 0 0 0 .3.71A4 4 0 0 1 9.5 22"/><path fill="#1d44a9" d="M10.61 16.34a.26.26 0 0 1-.11-.21V8.5a1 1 0 0 0-2 0v7.63a.26.26 0 0 1-.11.21a2 2 0 1 0 2.22 0m8.89-4.84H17a1 1 0 0 0 0 2h2.5a1 1 0 0 0 0-2m-2.5-6h2.5a1 1 0 0 0 0-2H17a1 1 0 0 0 0 2m2.5 2H17a1 1 0 0 0 0 2h2.5a1 1 0 0 0 0-2"/></svg>